# File created by Blade
# Date/Time:  Thu Jan 22 18:06:27 2015
# Frame Rate: 120.000 fps
#------------------------------------------------------
:FULLY-SPECIFIED
:DEGREES
2303
root -0.208172 33.097456 -1.839078 6.922250 -15.314183 -2.883212
RightUpLeg -23.481286 -26.690021 3.207668
RightLeg 85.213955 -0.000000 -0.000000
RightFoot -6.896760 -15.901856 3.834271
RightToeBase -5.089655 -0.000000 0.000000
LeftUpLeg -0.732498 6.377324 -6.678161
LeftLeg 2.133809 -0.000000 -0.000000
LeftFoot -14.681447 12.274411 -3.498768
LeftToeBase 8.210751 -0.000000 -0.000000
Spine -9.309909 -0.205874 -0.390765
RightShoulder -17.123219 -16.675874 -19.330848
RightArm 29.838229 17.425418 54.670982
RightForeArm -3.990608 -0.000000 22.925314
RightHand 11.938627 -0.000000 0.636469
RightHandThumb1 -24.326973 -0.000000 -32.862282
LeftShoulder -23.732032 10.013959 25.168308
LeftArm -4.849256 -47.756348 -44.516079
LeftForeArm 10.657743 -0.000000 70.063498
LeftHand -4.405610 0.000000 35.407641
LeftHandThumb1 -26.253704 0.000000 33.147579
Head 20.455132 -14.068620 -5.647922
2304
root -0.199892 33.099931 -1.844769 6.982930 -15.348982 -2.924288
RightUpLeg -23.094290 -26.432231 3.083707
RightLeg 83.134216 -0.000000 -0.000000
RightFoot -7.416411 -16.044499 3.885434
RightToeBase -5.629963 -0.000000 0.000000
LeftUpLeg -0.761371 6.341235 -6.658055
LeftLeg 2.065753 -0.000000 -0.000000
LeftFoot -14.645695 12.313399 -3.502623
LeftToeBase 8.102571 -0.000000 -0.000000
Spine -9.319858 -0.177895 -0.349138
RightShoulder -17.114287 -16.681168 -19.342597
RightArm 29.870290 17.394446 54.686408
RightForeArm -3.991276 -0.000000 22.918060
RightHand 11.906156 0.000000 0.639606
RightHandThumb1 -24.326973 -0.000000 -32.862282
LeftShoulder -23.752925 10.039971 25.167153
LeftArm -4.856041 -47.756339 -44.550696
LeftForeArm 10.627044 -0.000000 70.083269
LeftHand -4.415842 -0.000000 35.363423
LeftHandThumb1 -26.253704 0.000000 33.147579
Head 20.421159 -14.076013 -5.631248
2305
root -0.191162 33.102438 -1.848771 7.036288 -15.370919 -2.961752
RightUpLeg -22.666954 -26.205541 2.946982
RightLeg 80.995046 -0.000000 -0.000000
RightFoot -7.827110 -16.187278 3.993856
RightToeBase -5.779984 -0.000000 0.000000
LeftUpLeg -0.799684 6.378432 -6.637372
LeftLeg 2.032683 -0.000000 -0.000000
LeftFoot -14.612501 12.276490 -3.441736
LeftToeBase 8.048662 -0.000000 -0.000000
Spine -9.321950 -0.165583 -0.307161
RightShoulder -17.111580 -16.706356 -19.342692
RightArm 29.933774 17.400922 54.716694
RightForeArm -4.005105 -0.000000 22.899702
RightHand 11.912764 -0.000000 0.662707
RightHandThumb1 -24.326973 -0.000000 -32.862282
LeftShoulder -23.756558 10.044169 25.178084
LeftArm -4.925464 -47.726871 -44.541004
LeftForeArm 10.569570 -0.000000 70.106903
LeftHand -4.338572 -0.000000 35.322655
LeftHandThumb1 -26.253704 0.000000 33.147579
Head 20.381616 -14.081651 -5.617066
2306
root -0.183720 33.106201 -1.851557 7.081539 -15.396809 -3.014823
RightUpLeg -22.208522 -25.985064 2.825907
RightLeg 78.805726 -0.000000 -0.000000
RightFoot -8.058206 -16.357778 3.963831
RightToeBase -6.036724 -0.000000 0.000000
LeftUpLeg -0.810712 6.357663 -6.605253
LeftLeg 1.973049 -0.000000 -0.000000
LeftFoot -14.573111 12.311081 -3.435579
LeftToeBase 8.065327 -0.000000 -0.000000
Spine -9.315805 -0.128592 -0.254100
RightShoulder -17.121049 -16.720285 -19.334359
RightArm 29.973219 17.392312 54.721310
RightForeArm -3.984769 0.000000 22.883575
RightHand 11.918573 -0.000000 0.655102
RightHandThumb1 -24.326973 -0.000000 -32.862282
LeftShoulder -23.746636 10.074360 25.185109
LeftArm -4.947582 -47.714130 -44.572461
LeftForeArm 10.546122 -0.000000 70.117859
LeftHand -4.335980 -0.000000 35.330307
LeftHandThumb1 -26.253704 0.000000 33.147579
Head 20.362338 -14.104478 -5.620303
2307
root -0.175637 33.109878 -1.854897 7.143565 -15.433727 -3.085475
RightUpLeg -21.737181 -25.754766 2.727701
RightLeg 76.547841 -0.000000 -0.000000
RightFoot -8.676912 -16.437560 4.758117
RightToeBase -5.866585 -0.000000 0.000000
LeftUpLeg -0.819158 6.355295 -6.569182
LeftLeg 1.855546 -0.000000 -0.000000
LeftFoot -14.552926 12.385309 -3.503409
LeftToeBase 8.208630 -0.000000 -0.000000
Spine -9.321514 -0.073030 -0.171857
RightShoulder -17.132102 -16.718032 -19.355619
RightArm 29.992745 17.382677 54.741746
RightForeArm -3.994526 -0.000000 22.877687
RightHand 11.936673 -0.000000 0.658210
RightHandThumb1 -24.326973 -0.000000 -32.862282
LeftShoulder -23.751024 10.041327 25.199154
LeftArm -4.993424 -47.615766 -44.572620
LeftForeArm 10.509070 0.000000 70.114225
LeftHand -4.366336 -0.000000 35.475573
LeftHandThumb1 -26.253704 0.000000 33.147579
Head 20.343607 -14.134125 -5.639131
2308
root -0.167262 33.113878 -1.855558 7.182352 -15.471814 -3.138346
RightUpLeg -21.208866 -25.564689 2.590968
RightLeg 74.247787 -0.000000 -0.000000
RightFoot -9.098861 -16.557142 5.092003
RightToeBase -5.611189 -0.000000 0.000000
LeftUpLeg -0.802740 6.290895 -6.533075
LeftLeg 1.789813 -0.000000 -0.000000
LeftFoot -14.494936 12.459217 -3.414855
LeftToeBase 8.142361 -0.000000 -0.000000
Spine -9.316572 -0.012482 -0.117534
RightShoulder -17.125975 -16.705695 -19.372533
RightArm 29.973200 17.362160 54.735504
RightForeArm -3.997601 -0.000000 22.870242
RightHand 11.953642 -0.000000 0.637512
RightHandThumb1 -24.326973 -0.000000 -32.862282
LeftShoulder -23.732029 10.034373 25.227788
LeftArm -5.030937 -47.567538 -44.605782
LeftForeArm 10.493085 -0.000000 70.129367
LeftHand -4.325516 -0.000000 35.496415
LeftHandThumb1 -26.253704 0.000000 33.147579
Head 20.328800 -14.153437 -5.615575
2309
root -0.159995 33.118845 -1.855320 7.211105 -15.507547 -3.204720
RightUpLeg -20.625899 -25.369027 2.459915
RightLeg 71.878318 -0.000000 -0.000000
RightFoot -9.157863 -16.780755 4.449415
RightToeBase -6.171722 -0.000000 0.000000
LeftUpLeg -0.755163 6.189198 -6.485873
LeftLeg 1.668040 -0.000000 -0.000000
LeftFoot -14.425341 12.598333 -3.382539
LeftToeBase 8.140028 -0.000000 -0.000000
Spine -9.296154 0.044305 -0.051329
RightShoulder -17.122944 -16.707749 -19.365213
RightArm 29.979067 17.351568 54.708884
RightForeArm -4.002309 0.000000 22.849564
RightHand 11.994670 -0.000000 0.616663
RightHandThumb1 -24.326973 -0.000000 -32.862282
LeftShoulder -23.716432 10.049826 25.236392
LeftArm -5.041307 -47.529195 -44.645062
LeftForeArm 10.457897 -0.000000 70.157285
LeftHand -4.317404 -0.000000 35.481667
LeftHandThumb1 -26.253704 0.000000 33.147579
Head 20.324925 -14.185348 -5.611522
2310
root -0.151113 33.123994 -1.857266 7.259206 -15.539406 -3.276974
RightUpLeg -20.045205 -25.193045 2.336721
RightLeg 69.464910 -0.000000 -0.000000
RightFoot -10.046893 -16.722921 5.372223
RightToeBase -5.361237 -0.000000 0.000000
LeftUpLeg -0.741141 6.099158 -6.440536
LeftLeg 1.564614 -0.000000 -0.000000
LeftFoot -14.380344 12.723836 -3.421304
LeftToeBase 8.177560 -0.000000 -0.000000
Spine -9.290821 0.106755 0.026102
RightShoulder -17.105013 -16.655836 -19.388099
RightArm 29.913467 17.303994 54.655722
RightForeArm -3.968580 -0.000000 22.849501
RightHand 11.954911 -0.000000 0.576585
RightHandThumb1 -24.326973 -0.000000 -32.862282
LeftShoulder -23.709147 10.082738 25.215538
LeftArm -4.982930 -47.496224 -44.707249
LeftForeArm 10.476358 -0.000000 70.169698
LeftHand -4.307171 0.000000 35.397570
LeftHandThumb1 -26.253704 0.000000 33.147579
Head 20.311830 -14.209910 -5.591206
2311
root -0.143300 33.129427 -1.859000 7.313281 -15.570088 -3.349271
RightUpLeg -19.462700 -24.987538 2.251823
RightLeg 67.031230 -0.000000 -0.000000
RightFoot -10.298621 -16.905468 5.204225
RightToeBase -6.258956 -0.000000 0.000000
LeftUpLeg -0.721173 5.931525 -6.389846
LeftLeg 1.439493 -0.000000 -0.000000
LeftFoot -14.331867 12.913345 -3.496117
LeftToeBase 8.276935 -0.000000 -0.000000
Spine -9.295070 0.165619 0.099080
RightShoulder -17.104705 -16.661518 -19.385861
RightArm 29.915590 17.275378 54.609305
RightForeArm -3.955504 -0.000000 22.829757
RightHand 11.949034 -0.000000 0.593196
RightHandThumb1 -24.326973 -0.000000 -32.862282
LeftShoulder -23.701280 10.094174 25.206582
LeftArm -4.942085 -47.448553 -44.756635
LeftForeArm 10.405286 -0.000000 70.165240
LeftHand -4.346092 -0.000000 35.735350
LeftHandThumb1 -26.253704 0.000000 33.147579
Head 20.302460 -14.225421 -5.565889
2312
root -0.135668 33.132587 -1.856405 7.310814 -15.608183 -3.411583
RightUpLeg -18.793500 -24.808875 2.113708
RightLeg 64.580161 -0.000000 -0.000000
RightFoot -10.808607 -17.084466 5.198617
RightToeBase -6.376209 -0.000000 0.000000
LeftUpLeg -0.634581 5.926756 -6.339505
LeftLeg 1.304012 -0.000000 -0.000000
LeftFoot -14.283010 12.911157 -3.561620
LeftToeBase 8.347806 -0.000000 -0.000000
Spine -9.233047 0.222917 0.164497
RightShoulder -17.107393 -16.665175 -19.393048
RightArm 29.929916 17.242170 54.568741
RightForeArm -3.943461 -0.000000 22.811426
RightHand 11.931633 -0.000000 0.590099
RightHandThumb1 -24.326973 -0.000000 -32.862282
LeftShoulder -23.702761 10.106461 25.186725
LeftArm -4.900603 -47.378656 -44.787448
LeftForeArm 10.377009 -0.000000 70.151474
LeftHand -4.401500 -0.000000 35.933197
LeftHandThumb1 -26.253704 0.000000 33.147579
Head 20.259284 -14.244720 -5.538537
2313
root -0.126418 33.138080 -1.862984 7.402158 -15.636239 -3.467434
RightUpLeg -18.246319 -24.560584 2.035523
RightLeg 62.123887 -0.000000 -0.000000
RightFoot -11.495818 -17.255581 5.501251
RightToeBase -6.191665 -0.000000 0.000000
LeftUpLeg -0.768498 6.325418 -6.303332
LeftLeg 1.384340 -0.000000 -0.000000
LeftFoot -14.272948 12.535506 -3.526649
LeftToeBase 8.347766 -0.000000 -0.000000
Spine -9.271070 0.275780 0.212522
RightShoulder -17.105925 -16.653414 -19.380071
RightArm 29.916935 17.183538 54.489027
RightForeArm -3.873581 0.000000 22.796575
RightHand 11.921297 -0.000000 0.566518
RightHandThumb1 -24.326973 -0.000000 -32.862282
LeftShoulder -23.682469 10.073780 25.193006
LeftArm -4.935851 -47.303433 -44.759800
LeftForeArm 10.372577 -0.000000 70.149991
LeftHand -4.317318 -0.000000 35.432312
LeftHandThumb1 -26.253704 0.000000 33.147579
Head 20.229478 -14.272457 -5.488313
